<svg data-dc-tpl="36" width="640" height="640" viewBox="0 0 640 640" fill="none" font-family="'Martian Mono', monospace">
  <circle data-dc-tpl="37" cx="320" cy="320" r="70" stroke="#123021"/>
  <circle data-dc-tpl="38" cx="320" cy="320" r="140" stroke="#123021"/>
  <circle data-dc-tpl="39" cx="320" cy="320" r="210" stroke="#123021"/>
  <circle data-dc-tpl="40" cx="320" cy="320" r="280" stroke="#0f2a1b"/>
  <circle data-dc-tpl="41" cx="320" cy="320" r="300" stroke="#17452c" stroke-width="9" stroke-dasharray="2 50.4"/>
  <circle data-dc-tpl="42" cx="320" cy="320" r="304.5" stroke="#0e2418"/>
  <g data-dc-tpl="43" fill="#1b4e33" font-size="9" letter-spacing="1" text-anchor="middle">
    <text data-dc-tpl="44" x="462" y="78">30</text>
    <text data-dc-tpl="45" x="566" y="182">60</text>
    <text data-dc-tpl="46" x="566" y="466">120</text>
    <text data-dc-tpl="47" x="462" y="570">150</text>
    <text data-dc-tpl="48" x="178" y="570">210</text>
    <text data-dc-tpl="49" x="74" y="466">240</text>
    <text data-dc-tpl="50" x="74" y="182">300</text>
    <text data-dc-tpl="51" x="178" y="78">330</text>
  </g>
  <g data-dc-tpl="52" stroke="#12402a">
    <circle data-dc-tpl="53" cx="170" cy="58" r="22"/>
    <circle data-dc-tpl="54" cx="170" cy="58" r="6"/>
    <path data-dc-tpl="55" d="M170 28v12m0 36v12m-30-30h12m36 0h12"/>
  </g>
  <path data-dc-tpl="57" d="m320 320 70 48 62-16 64-44" stroke="#12402a" stroke-dasharray="10 8"/>
  <g data-dc-tpl="58" stroke="#1d6b41">
    <path data-dc-tpl="59" d="m390 360 8 8-8 8-8-8z"/>
    <path data-dc-tpl="60" d="m452 344 8 8-8 8-8-8z"/>
    <circle data-dc-tpl="61" cx="516" cy="308" r="6"/>
    <path data-dc-tpl="62" d="M516 302v12m-6-6h12"/>
  </g>
  <g data-dc-tpl="63" fill="#1e5638" font-size="9" letter-spacing="1">
    <text data-dc-tpl="64" x="376" y="390">1</text>
    <text data-dc-tpl="65" x="462" y="338">2</text>
    <text data-dc-tpl="66" x="526" y="302">3</text>
  </g>
  <g data-dc-tpl="67" stroke="#1d6b41">
    <path data-dc-tpl="68" d="M460 330a10 10 0 0 1 20 0"/>
    <path data-dc-tpl="69" d="M470 330v14m0 0 26 16"/>
  </g>
  <text data-dc-tpl="70" x="486" y="320" fill="#1e5638" font-size="9" letter-spacing="1">F2</text>
  <g data-dc-tpl="71" stroke="#17452c">
    <path data-dc-tpl="72" d="M250 402h18v18h-18z"/>
    <path data-dc-tpl="73" d="M259 420v12"/>
  </g>
  <text data-dc-tpl="74" x="274" y="398" fill="#1b4e33" font-size="9" letter-spacing="1">UNK</text>
  <g data-dc-tpl="75" stroke="#5c1f49">
    <path data-dc-tpl="76" d="m96 344 10 18H86z"/>
    <path data-dc-tpl="77" d="M96 362v12m0 0-24 18"/>
  </g>
  <text data-dc-tpl="78" x="110" y="380" fill="#6b2455" font-size="9" letter-spacing="1">L</text>
  <circle data-dc-tpl="79" cx="200" cy="190" r="21" stroke="#7a2a5e" stroke-dasharray="4 4"/>
  <g data-dc-tpl="80" stroke="#b24486">
    <path data-dc-tpl="81" d="m200 174 12 24h-24z"/>
    <path data-dc-tpl="82" d="M200 198v16m0 0 36 32"/>
  </g>
  <path data-dc-tpl="83" d="m184 168 16-16 16 16" stroke="#7a2a5e"/>
  <text data-dc-tpl="84" x="200" y="130" fill="#b24486" font-size="9" letter-spacing="1" text-anchor="middle">PRI</text>
  <text data-dc-tpl="85" x="200" y="144" fill="#6b2455" font-size="9" letter-spacing="1" text-anchor="middle">F1 24K 480</text>
  <path data-dc-tpl="86" d="m308 306-92-96" stroke="#4a1338" stroke-dasharray="7 6"/>
  <circle data-dc-tpl="87" cx="508" cy="250" r="40" stroke="#4a1338" stroke-dasharray="7 6"/>
  <g data-dc-tpl="88" stroke="#6b2455">
    <circle data-dc-tpl="89" cx="508" cy="250" r="9"/>
    <path data-dc-tpl="90" d="M508 239v22m-11-11h22"/>
  </g>
  <g data-dc-tpl="91" stroke="#0f2a1b" stroke-dasharray="3 7">
    <path data-dc-tpl="92" d="M320 280V22"/>
    <path data-dc-tpl="93" d="m348 292 182-182"/>
    <path data-dc-tpl="94" d="M360 320h258"/>
    <path data-dc-tpl="95" d="m348 348 182 182"/>
    <path data-dc-tpl="96" d="M320 360v258"/>
    <path data-dc-tpl="97" d="M292 348 110 530"/>
    <path data-dc-tpl="98" d="M280 320H22"/>
    <path data-dc-tpl="99" d="M292 292 110 110"/>
  </g>
  <g data-dc-tpl="100" fill="#1e5638" font-size="11" letter-spacing="1.5" text-anchor="middle">
    <text data-dc-tpl="101" x="250" y="352">10</text>
    <text data-dc-tpl="102" x="180" y="352">20</text>
    <text data-dc-tpl="103" x="110" y="352">30</text>
  </g>
  <g data-dc-tpl="104" fill="#256b45" font-size="12" letter-spacing="2" text-anchor="middle">
    <text data-dc-tpl="105" x="320" y="58">N</text>
    <text data-dc-tpl="106" x="586" y="325">E</text>
    <text data-dc-tpl="107" x="320" y="592">S</text>
    <text data-dc-tpl="108" x="54" y="325">W</text>
  </g>
  <path data-dc-tpl="109" d="m320 8 10 18h-20z" fill="#1d6b41"/>
  <path data-dc-tpl="110" d="m150 130 112-38 74 64-68 58-106-18z" stroke="#4a1338" stroke-dasharray="6 6"/>
  <path data-dc-tpl="111" d="M320 300v-56" stroke="#2fe07a" opacity=".3"/>
  <g data-dc-tpl="112" stroke="#2fe07a" opacity=".6">
    <path data-dc-tpl="113" d="M320 300v34m-14-6 14-9 14 9m-22 8h16"/>
  </g>
</svg>
